<mxfile host="app.diagrams.net" modified="2023-02-16T12:59:25.527Z" agent="5.0 (Windows NT 10.0; Win64; x64) AppleWebKit/537.36 (KHTML, like Gecko) Chrome/106.0.0.0 YaBrowser/22.11.5.715 Yowser/2.5 Safari/537.36" etag="Q0HFOkV7hwgh1Pm7W18o" version="20.8.20" type="github">
  <diagram id="C5RBs43oDa-KdzZeNtuy" name="Page-1">
    <mxGraphModel dx="832" dy="455" grid="1" gridSize="10" guides="1" tooltips="1" connect="1" arrows="1" fold="1" page="1" pageScale="1" pageWidth="827" pageHeight="1169" math="0" shadow="0">
      <root>
        <mxCell id="WIyWlLk6GJQsqaUBKTNV-0" />
        <mxCell id="WIyWlLk6GJQsqaUBKTNV-1" parent="WIyWlLk6GJQsqaUBKTNV-0" />
        <mxCell id="WIyWlLk6GJQsqaUBKTNV-2" value="" style="rounded=0;html=1;jettySize=auto;orthogonalLoop=1;fontSize=11;endArrow=block;endFill=0;endSize=8;strokeWidth=1;shadow=0;labelBackgroundColor=none;edgeStyle=orthogonalEdgeStyle;startArrow=none;" parent="WIyWlLk6GJQsqaUBKTNV-1" source="rH_pmfwHuekvQqHlG9nD-1" target="WIyWlLk6GJQsqaUBKTNV-6" edge="1">
          <mxGeometry relative="1" as="geometry" />
        </mxCell>
        <mxCell id="WIyWlLk6GJQsqaUBKTNV-3" value="Start" style="rounded=1;whiteSpace=wrap;html=1;fontSize=12;glass=0;strokeWidth=1;shadow=0;" parent="WIyWlLk6GJQsqaUBKTNV-1" vertex="1">
          <mxGeometry x="120" y="20" width="120" height="40" as="geometry" />
        </mxCell>
        <mxCell id="rH_pmfwHuekvQqHlG9nD-4" value="" style="edgeStyle=orthogonalEdgeStyle;rounded=0;orthogonalLoop=1;jettySize=auto;html=1;" edge="1" parent="WIyWlLk6GJQsqaUBKTNV-1" source="WIyWlLk6GJQsqaUBKTNV-6" target="rH_pmfwHuekvQqHlG9nD-3">
          <mxGeometry relative="1" as="geometry" />
        </mxCell>
        <mxCell id="rH_pmfwHuekvQqHlG9nD-24" style="edgeStyle=orthogonalEdgeStyle;rounded=0;orthogonalLoop=1;jettySize=auto;html=1;entryX=0;entryY=0.5;entryDx=0;entryDy=0;" edge="1" parent="WIyWlLk6GJQsqaUBKTNV-1" source="WIyWlLk6GJQsqaUBKTNV-6" target="rH_pmfwHuekvQqHlG9nD-0">
          <mxGeometry relative="1" as="geometry" />
        </mxCell>
        <mxCell id="WIyWlLk6GJQsqaUBKTNV-6" value="i = 0&lt;br&gt;i &amp;lt; len" style="rhombus;whiteSpace=wrap;html=1;shadow=0;fontFamily=Helvetica;fontSize=12;align=center;strokeWidth=1;spacing=6;spacingTop=-4;" parent="WIyWlLk6GJQsqaUBKTNV-1" vertex="1">
          <mxGeometry x="130" y="180" width="100" height="80" as="geometry" />
        </mxCell>
        <mxCell id="WIyWlLk6GJQsqaUBKTNV-7" value="Plug in lamp" style="rounded=1;whiteSpace=wrap;html=1;fontSize=12;glass=0;strokeWidth=1;shadow=0;" parent="WIyWlLk6GJQsqaUBKTNV-1" vertex="1">
          <mxGeometry x="430" y="200" width="120" height="40" as="geometry" />
        </mxCell>
        <mxCell id="rH_pmfwHuekvQqHlG9nD-28" value="" style="edgeStyle=orthogonalEdgeStyle;rounded=0;orthogonalLoop=1;jettySize=auto;html=1;" edge="1" parent="WIyWlLk6GJQsqaUBKTNV-1" source="rH_pmfwHuekvQqHlG9nD-0" target="rH_pmfwHuekvQqHlG9nD-27">
          <mxGeometry relative="1" as="geometry" />
        </mxCell>
        <mxCell id="rH_pmfwHuekvQqHlG9nD-0" value="print" style="rounded=0;whiteSpace=wrap;html=1;" vertex="1" parent="WIyWlLk6GJQsqaUBKTNV-1">
          <mxGeometry x="430" y="190" width="120" height="60" as="geometry" />
        </mxCell>
        <mxCell id="rH_pmfwHuekvQqHlG9nD-2" value="" style="rounded=0;html=1;jettySize=auto;orthogonalLoop=1;fontSize=11;endArrow=none;endFill=0;endSize=8;strokeWidth=1;shadow=0;labelBackgroundColor=none;edgeStyle=orthogonalEdgeStyle;" edge="1" parent="WIyWlLk6GJQsqaUBKTNV-1" source="WIyWlLk6GJQsqaUBKTNV-3" target="rH_pmfwHuekvQqHlG9nD-1">
          <mxGeometry relative="1" as="geometry">
            <mxPoint x="180" y="60" as="sourcePoint" />
            <mxPoint x="180" y="180" as="targetPoint" />
          </mxGeometry>
        </mxCell>
        <mxCell id="rH_pmfwHuekvQqHlG9nD-1" value="size&lt;br style=&quot;border-color: var(--border-color);&quot;&gt;[] array&lt;br style=&quot;border-color: var(--border-color);&quot;&gt;len = 3" style="shape=parallelogram;perimeter=parallelogramPerimeter;whiteSpace=wrap;html=1;fixedSize=1;" vertex="1" parent="WIyWlLk6GJQsqaUBKTNV-1">
          <mxGeometry x="120" y="80" width="120" height="60" as="geometry" />
        </mxCell>
        <mxCell id="rH_pmfwHuekvQqHlG9nD-6" value="" style="edgeStyle=orthogonalEdgeStyle;rounded=0;orthogonalLoop=1;jettySize=auto;html=1;" edge="1" parent="WIyWlLk6GJQsqaUBKTNV-1" source="rH_pmfwHuekvQqHlG9nD-3" target="rH_pmfwHuekvQqHlG9nD-5">
          <mxGeometry relative="1" as="geometry" />
        </mxCell>
        <mxCell id="rH_pmfwHuekvQqHlG9nD-3" value="element" style="shape=parallelogram;perimeter=parallelogramPerimeter;whiteSpace=wrap;html=1;fixedSize=1;" vertex="1" parent="WIyWlLk6GJQsqaUBKTNV-1">
          <mxGeometry x="190" y="290" width="120" height="60" as="geometry" />
        </mxCell>
        <mxCell id="rH_pmfwHuekvQqHlG9nD-8" value="" style="edgeStyle=orthogonalEdgeStyle;rounded=0;orthogonalLoop=1;jettySize=auto;html=1;" edge="1" parent="WIyWlLk6GJQsqaUBKTNV-1" source="rH_pmfwHuekvQqHlG9nD-5" target="rH_pmfwHuekvQqHlG9nD-7">
          <mxGeometry relative="1" as="geometry" />
        </mxCell>
        <mxCell id="rH_pmfwHuekvQqHlG9nD-12" value="" style="edgeStyle=orthogonalEdgeStyle;rounded=0;orthogonalLoop=1;jettySize=auto;html=1;" edge="1" parent="WIyWlLk6GJQsqaUBKTNV-1" source="rH_pmfwHuekvQqHlG9nD-5" target="rH_pmfwHuekvQqHlG9nD-10">
          <mxGeometry relative="1" as="geometry" />
        </mxCell>
        <mxCell id="rH_pmfwHuekvQqHlG9nD-5" value="element.length &amp;lt;= len" style="rhombus;whiteSpace=wrap;html=1;" vertex="1" parent="WIyWlLk6GJQsqaUBKTNV-1">
          <mxGeometry x="180" y="390" width="140" height="120" as="geometry" />
        </mxCell>
        <mxCell id="rH_pmfwHuekvQqHlG9nD-11" style="edgeStyle=orthogonalEdgeStyle;rounded=0;orthogonalLoop=1;jettySize=auto;html=1;entryX=0.5;entryY=1;entryDx=0;entryDy=0;" edge="1" parent="WIyWlLk6GJQsqaUBKTNV-1" source="rH_pmfwHuekvQqHlG9nD-7" target="rH_pmfwHuekvQqHlG9nD-10">
          <mxGeometry relative="1" as="geometry" />
        </mxCell>
        <mxCell id="rH_pmfwHuekvQqHlG9nD-7" value="array[i] = element" style="rounded=0;whiteSpace=wrap;html=1;" vertex="1" parent="WIyWlLk6GJQsqaUBKTNV-1">
          <mxGeometry x="190" y="550" width="120" height="70" as="geometry" />
        </mxCell>
        <mxCell id="rH_pmfwHuekvQqHlG9nD-9" value="yes" style="text;html=1;align=center;verticalAlign=middle;resizable=0;points=[];autosize=1;strokeColor=none;fillColor=none;" vertex="1" parent="WIyWlLk6GJQsqaUBKTNV-1">
          <mxGeometry x="250" y="520" width="40" height="30" as="geometry" />
        </mxCell>
        <mxCell id="rH_pmfwHuekvQqHlG9nD-26" style="edgeStyle=orthogonalEdgeStyle;rounded=0;orthogonalLoop=1;jettySize=auto;html=1;" edge="1" parent="WIyWlLk6GJQsqaUBKTNV-1" source="rH_pmfwHuekvQqHlG9nD-10">
          <mxGeometry relative="1" as="geometry">
            <mxPoint x="180" y="160" as="targetPoint" />
            <Array as="points">
              <mxPoint x="70" y="160" />
            </Array>
          </mxGeometry>
        </mxCell>
        <mxCell id="rH_pmfwHuekvQqHlG9nD-10" value="i++" style="rounded=0;whiteSpace=wrap;html=1;" vertex="1" parent="WIyWlLk6GJQsqaUBKTNV-1">
          <mxGeometry x="10" y="420" width="120" height="60" as="geometry" />
        </mxCell>
        <mxCell id="rH_pmfwHuekvQqHlG9nD-19" value="yes" style="text;html=1;align=center;verticalAlign=middle;resizable=0;points=[];autosize=1;strokeColor=none;fillColor=none;" vertex="1" parent="WIyWlLk6GJQsqaUBKTNV-1">
          <mxGeometry x="180" y="260" width="40" height="30" as="geometry" />
        </mxCell>
        <mxCell id="rH_pmfwHuekvQqHlG9nD-20" value="no" style="text;html=1;align=center;verticalAlign=middle;resizable=0;points=[];autosize=1;strokeColor=none;fillColor=none;" vertex="1" parent="WIyWlLk6GJQsqaUBKTNV-1">
          <mxGeometry x="150" y="430" width="40" height="30" as="geometry" />
        </mxCell>
        <mxCell id="rH_pmfwHuekvQqHlG9nD-22" value="no" style="text;html=1;align=center;verticalAlign=middle;resizable=0;points=[];autosize=1;strokeColor=none;fillColor=none;" vertex="1" parent="WIyWlLk6GJQsqaUBKTNV-1">
          <mxGeometry x="230" y="200" width="40" height="30" as="geometry" />
        </mxCell>
        <mxCell id="rH_pmfwHuekvQqHlG9nD-27" value="Finish" style="rounded=1;whiteSpace=wrap;html=1;" vertex="1" parent="WIyWlLk6GJQsqaUBKTNV-1">
          <mxGeometry x="430" y="330" width="120" height="60" as="geometry" />
        </mxCell>
      </root>
    </mxGraphModel>
  </diagram>
</mxfile>
